<svg xmlns="http://www.w3.org/2000/svg" width="64" height="64" viewBox="0 0 64 64"><path fill="#020617" d="M11.98 8.047c.136-.005.283-.003.42-.004l31.397.003c2.177 0 3.303.236 3.3 2.914l-.003 1.298c9.184.712 9.607 13.791.089 14.673-.027.285-.002 1.05-.002 1.38l.002 2.9c0 2.118.048 21.987-.026 22.142-.165.346-2.253 2.018-2.656 2.193-.485-.193-1.699-1.326-2.167-1.736l-.175-.176-1.393 1.214c-.482.416-.874.984-1.477.481-.668-.556-1.3-1.11-1.94-1.695-2.647 2.524-2.24 2.331-4.74 0-2.922 2.406-1.784 2.418-4.747 0-.638.585-1.38 1.182-2.058 1.731-.603.489-2.137-1.3-2.712-1.731-.59.343-1.854 1.746-2.373 1.83-.39.062-1.914-1.495-2.336-1.798l-.046-.032c-.424.297-2.02 1.911-2.423 1.84-.316-.055-2.009-1.73-2.217-2.07l.053-32.609c0-1.78.04-3.72 0-5.487-1.115.023-2.255-.005-3.37-.002-.89.002-.584-1.569-.586-2.25l-.008-2.608c-.003-1.274.927-2.274 2.195-2.401"/><path fill="#e2e8f0" d="M14.04 8.937H43.8c2.624.004 2.462.748 2.451 3.32-8.277.582-9.293 11.907-1.636 14.3.54.17 1.085.249 1.636.374v26.086a40 40 0 0 1-1.75 1.437c-.452-.399-.96-.809-1.424-1.211-.884-.794-.874-.816-1.807-.032-.423.355-1.037.94-1.482 1.22l-.038.023c-.809-.5-1.398-1.3-2.199-1.79-.465-.284-2.046 1.463-2.68 1.79-.354-.338-.754-.7-1.122-1.01-.727-.611-.96-1.195-1.833-.41-.518.467-1.143.984-1.68 1.42-.364-.317-1.958-1.808-2.313-1.854-.4-.05-2.052 1.53-2.505 1.854-.601-.488-1.696-1.634-2.326-1.885-.56.196-1.898 1.423-2.35 1.885-.4-.29-.97-.755-1.303-1.072-1.037-.987-1.076-1.077-2.151-.064-.36.338-.888.755-1.277 1.136-.436-.465-1.07-.958-1.417-1.437-.087-.952-.032-2.665-.028-3.664l.094-38.048c-.002-1.092.074-1.474-.62-2.368"/><defs><linearGradient id="a" x1="204.102" x2="225.17" y1="103.402" y2="170.669" gradientUnits="userSpaceOnUse"><stop offset="0"/><stop offset="1" stop-color="#030a24"/></linearGradient></defs><path fill="url(#a)" d="m153.83 118.729 106.165-.004c10.522-.002 19.067-3.621 19.018 7.561-.041 5.958 2.55 28.125-3.399 29.233l-79.345-.002c-5.88-.001-44.094 1.905-45.392-1.779-.923-2.623-.735-27.175-.424-31.15.179-2.283 1.267-3.151 3.377-3.859" transform="scale(.125)"/><path fill="#0ea5e9" d="M32.884 15.747c.385-.012.7-.023 1.085 0v2.792H19.686v-2.792c1.42-.032 2.973 0 4.405 0z"/><path fill="#020617" d="M23.362 40.411h13.466c.628 0 4.515-.065 4.856.042.503.157.28.76-.117.89H28.663c-.769 0-5.004.07-5.365-.056-.417-.147-.314-.749.064-.876"/><path fill="#020617" d="M23.517 35.121h13.47c.7 0 4.354-.067 4.67.04.511.174.337.743-.09.875l-17.989.006c-.702.004-.719-.83-.06-.92"/><path fill="#020617" d="M23.362 29.561c1.277-.04 2.794 0 4.084 0H39.77c.587 0 1.232-.022 1.811.003.476.021.507.624.083.91-.383.022-.95.002-1.348.002l-15.101-.002c-.567 0-1.234.023-1.792-.016-.409-.029-.522-.624-.061-.897"/><path fill="#020617" d="M23.362 46.03h13.904c1.181 0 3.213-.025 4.437.028.27.012.438.634-.04.875-1.267.043-2.836 0-4.125 0H25.213c-.575 0-1.202.01-1.777-.015-.51-.072-.453-.65-.074-.888"/><path fill="#020617" d="M23.811 24.23h9.536c.37 0 1.014-.079 1.326.098.452.256.117.733-.45.797l-10.573.005c-.857-.05-.875-.835.161-.9"/><path fill="#020617" d="M19.229 35.121c.603-.001 1.39-.047 1.984.03.386.05.57.672.061.885-.38.035-1.9.056-2.177-.077-.423-.203-.264-.736.132-.838"/><path fill="#020617" d="M19.467 40.411c.49-.004 1.516-.079 1.914.102.415.188.245.737-.32.83-.46.003-1.747.09-2.053-.128-.443-.316-.049-.739.459-.804"/><path fill="#020617" d="M19.229 24.23c.565-.037 1.246-.001 1.817-.002.55 0 .733.572.229.897-.49.048-2.19.084-2.37-.214-.2-.33-.013-.547.324-.68"/><path fill="#020617" d="M19.144 29.561c.634-.004 1.287-.023 1.917.013.538.03.684.615.213.9-.613.035-1.361.006-1.98-.01-.49-.014-.67-.636-.15-.903"/><path fill="#020617" d="M19.229 46.03c.597-.005 1.482-.06 2.065.052.333.064.436.718-.02.85-.641.005-1.499.065-2.11-.061-.394-.082-.417-.653.065-.841"/><path fill="#22c55e" d="M46.306 26.037a6.481 6.481 0 1 1 .936-12.929 6.481 6.481 0 0 1-.936 12.93"/><path fill="#00933b" d="M48.547 13.339a6.482 6.482 0 0 1-2.241 12.698c.338-.402 3.428.097 4.995-3.754 1.132-2.783.566-5.344-1.282-7.577-.293-.354-1.356-1.067-1.472-1.367"/><path fill="#314e5d" d="M12.158 8.937c1.815.305 1.593 1.48 1.593 2.924l-.001 2.585h-3.064c-.037-.633-.018-1.517 0-2.165.039-1.423-.422-3.047 1.472-3.344"/></svg>